<?xml version="1.0" standalone="no"?>
<!DOCTYPE svg PUBLIC "-//W3C//DTD SVG 20010904//EN"
 "http://www.w3.org/TR/2001/REC-SVG-20010904/DTD/svg10.dtd">
<svg version="1.0" xmlns="http://www.w3.org/2000/svg"
 width="700.000000pt" height="700.000000pt" viewBox="0 0 700.000000 700.000000"
 preserveAspectRatio="xMidYMid meet">
<metadata>
Created by potrace 1.11, written by Peter Selinger 2001-2013
</metadata>
<g transform="translate(0.000000,700.000000) scale(0.100000,-0.100000)"
fill="#000000" stroke="none">
<path d="M4161 6984 c-251 -45 -467 -175 -630 -379 l-31 -40 -818 -1 c-877 -1
-961 -4 -1127 -38 -431 -88 -824 -322 -1100 -653 -83 -100 -83 -99 -142 -190
-114 -175 -201 -374 -253 -578 -45 -180 -58 -303 -54 -505 3 -170 6 -207 20
-280 4 -19 8 -44 9 -55 4 -38 45 -183 76 -272 225 -638 787 -1120 1464 -1254
55 -11 129 -22 165 -25 36 -3 79 -7 95 -9 17 -3 775 -5 1685 -5 1614 -1 1657
-2 1730 -21 639 -168 796 -980 265 -1368 -52 -39 -154 -91 -215 -111 -115 -37
-113 -37 -2458 -37 -1252 0 -2303 -4 -2334 -7 -301 -36 -526 -309 -504 -612
19 -255 186 -457 436 -525 62 -17 189 -18 2445 -16 1309 1 2391 6 2405 10 14
4 45 10 70 13 54 7 76 12 98 18 9 3 32 8 51 11 71 12 281 89 396 145 347 169
612 412 832 765 65 105 170 353 198 471 49 202 60 298 60 509 -1 190 -12 285
-56 460 -104 418 -363 809 -709 1067 -235 176 -499 294 -785 353 -180 37 -203
37 -1975 39 -1682 2 -1708 2 -1772 37 -10 5 -22 9 -28 9 -19 0 -105 44 -165
84 -163 109 -287 290 -325 473 -18 86 -20 221 -4 299 22 110 23 114 53 178 71
150 193 282 335 360 73 41 212 84 291 91 52 5 1406 9 1620 5 23 0 36 -9 53
-34 60 -89 218 -221 337 -283 54 -28 187 -78 240 -89 91 -20 172 -25 467 -25
367 -1 388 1 534 41 140 38 285 119 401 225 126 114 248 311 291 470 l19 70
244 3 243 2 203 -202 202 -202 146 144 145 145 -155 155 c-85 85 -155 159
-155 164 0 5 68 76 150 159 83 82 150 155 150 160 0 6 -63 73 -141 150 l-140
139 -200 -201 -200 -201 -249 0 c-236 0 -250 1 -250 18 0 28 -38 139 -72 211
-143 300 -424 512 -750 566 -114 19 -722 18 -827 -1z"/>
</g>
</svg>
